<?xml version="1.0" encoding="UTF-8"?>
<svg version="1.1" xmlns="http://www.w3.org/2000/svg" width="225" height="225">
<path d="M0 0 C4.00608074 3.40291802 6.77875524 7.21279844 7.83203125 12.46875 C8.21971575 18.31106532 7.56035957 24.18437631 7 30 C7.72574219 30.25523438 8.45148438 30.51046875 9.19921875 30.7734375 C20.38461987 35.67192558 30.919508 47.01600796 36 58 C40.32110341 70.62088318 39.97166694 82.3806377 34.34765625 94.5859375 C29.83129603 103.08395145 29.83129603 103.08395145 27.19921875 105.984375 C25.70112346 108.03327151 25.70112346 108.03327151 26.36328125 110.91796875 C26.67652344 111.99691406 26.98976563 113.07585937 27.3125 114.1875 C29.11469881 121.1011075 30.65832671 127.45582193 27 134 C28.25683594 133.76023438 28.25683594 133.76023438 29.5390625 133.515625 C40.00592402 131.95622802 49.51059737 131.98275075 58.625 137.625 C62.95546928 141.95546928 66.95588638 146.89708127 68.0625 153.0625 C67.90646195 162.89289716 61.95477696 171.11236549 55.25 178 C51.53793946 181.29960937 49.28922495 182.2390997 44.328125 182.4609375 C42 182 42 182 38.859375 180.07421875 C34.44527586 177.42293123 30.04817576 176.99769297 25 176.4375 C23.12463017 176.19687542 21.24962803 175.95336828 19.375 175.70703125 C18.45976562 175.58924316 17.54453125 175.47145508 16.6015625 175.35009766 C6.83762227 174.03614399 -2.15559048 171.89294467 -11.1953125 167.890625 C-15.85150415 166.41205718 -19.12446063 167.90429976 -23.375 169.9375 C-29.45068181 172.84278058 -35.54231824 174.20779169 -42.21875 174.9296875 C-43.57688913 175.08666781 -44.9349602 175.24423785 -46.29296875 175.40234375 C-48.3986204 175.64132123 -50.50447825 175.87547526 -52.61181641 176.09912109 C-63.39789868 177.25382644 -63.39789868 177.25382644 -73 182 C-77.17032386 182.72815178 -79.34698023 182.95056692 -83.00390625 180.84765625 C-89.06739881 175.99448902 -92.89483004 169.49046821 -97 163 C-97.33 162.67 -97.66 162.34 -98 162 C-98.78919871 155.84624803 -98.85847489 150.45662575 -95.4375 145.125 C-90.44097684 138.6623609 -86.09452385 134.83621873 -78 133 C-74.2109375 132.76953125 -74.2109375 132.76953125 -70.375 132.8125 C-68.46847656 132.82216797 -68.46847656 132.82216797 -66.5234375 132.83203125 C-63.54952813 132.97380298 -60.88663459 133.30875609 -58 134 C-58.350625 133.195625 -58.70125 132.39125 -59.0625 131.5625 C-60.45095917 126.28635514 -59.74914531 121.5799647 -58.234375 116.36328125 C-57.1116212 112.1768429 -56.37261738 109.34467055 -58.25390625 105.3125 C-59.48987616 103.47589676 -60.75306201 101.65739434 -62.0390625 99.85546875 C-69.06952263 89.61788637 -70.72976909 78.11120085 -69 66 C-67.17112145 59.35411454 -64.12338399 53.49784532 -60 48 C-59.46375 47.21625 -58.9275 46.4325 -58.375 45.625 C-57.92125 45.08875 -57.4675 44.5525 -57 44 C-56.34 44 -55.68 44 -55 44 C-54.67 43.01 -54.34 42.02 -54 41 C-52.63305664 39.6496582 -52.63305664 39.6496582 -50.91015625 38.30078125 C-50.29076172 37.81416016 -49.67136719 37.32753906 -49.03320312 36.82617188 C-48.38287109 36.32666016 -47.73253906 35.82714844 -47.0625 35.3125 C-46.41603516 34.80138672 -45.76957031 34.29027344 -45.10351562 33.76367188 C-40.26450893 30 -40.26450893 30 -38 30 C-38.15855469 29.45601562 -38.31710938 28.91203125 -38.48046875 28.3515625 C-40.35420359 19.87044693 -39.36534499 11.51809416 -35 4 C-32.6875 1.5625 -32.6875 1.5625 -30 0 C-29.05125 -0.5775 -28.1025 -1.155 -27.125 -1.75 C-18.94368223 -5.02252711 -7.61262692 -4.29075336 0 0 Z " fill="#060606" transform="translate(129,23)"/>
<path d="M0 0 C4.00608074 3.40291802 6.77875524 7.21279844 7.83203125 12.46875 C8.21971575 18.31106532 7.56035957 24.18437631 7 30 C7.72574219 30.25523438 8.45148438 30.51046875 9.19921875 30.7734375 C20.38461987 35.67192558 30.919508 47.01600796 36 58 C40.32110341 70.62088318 39.97166694 82.3806377 34.34765625 94.5859375 C29.83129603 103.08395145 29.83129603 103.08395145 27.19921875 105.984375 C25.70112346 108.03327151 25.70112346 108.03327151 26.36328125 110.91796875 C26.67652344 111.99691406 26.98976563 113.07585937 27.3125 114.1875 C29.11469881 121.1011075 30.65832671 127.45582193 27 134 C28.25683594 133.76023438 28.25683594 133.76023438 29.5390625 133.515625 C40.00592402 131.95622802 49.51059737 131.98275075 58.625 137.625 C62.95546928 141.95546928 66.95588638 146.89708127 68.0625 153.0625 C67.90646195 162.89289716 61.95477696 171.11236549 55.25 178 C51.53793946 181.29960937 49.28922495 182.2390997 44.328125 182.4609375 C42 182 42 182 38.859375 180.07421875 C34.44527586 177.42293123 30.04817576 176.99769297 25 176.4375 C23.12463017 176.19687542 21.24962803 175.95336828 19.375 175.70703125 C18.45976562 175.58924316 17.54453125 175.47145508 16.6015625 175.35009766 C6.83762227 174.03614399 -2.15559048 171.89294467 -11.1953125 167.890625 C-15.85150415 166.41205718 -19.12446063 167.90429976 -23.375 169.9375 C-29.45068181 172.84278058 -35.54231824 174.20779169 -42.21875 174.9296875 C-43.57688913 175.08666781 -44.9349602 175.24423785 -46.29296875 175.40234375 C-48.3986204 175.64132123 -50.50447825 175.87547526 -52.61181641 176.09912109 C-63.39789868 177.25382644 -63.39789868 177.25382644 -73 182 C-77.17032386 182.72815178 -79.34698023 182.95056692 -83.00390625 180.84765625 C-89.06739881 175.99448902 -92.89483004 169.49046821 -97 163 C-97.33 162.67 -97.66 162.34 -98 162 C-98.78919871 155.84624803 -98.85847489 150.45662575 -95.4375 145.125 C-90.44097684 138.6623609 -86.09452385 134.83621873 -78 133 C-74.2109375 132.76953125 -74.2109375 132.76953125 -70.375 132.8125 C-68.46847656 132.82216797 -68.46847656 132.82216797 -66.5234375 132.83203125 C-63.54952813 132.97380298 -60.88663459 133.30875609 -58 134 C-58.350625 133.195625 -58.70125 132.39125 -59.0625 131.5625 C-60.45095917 126.28635514 -59.74914531 121.5799647 -58.234375 116.36328125 C-57.1116212 112.1768429 -56.37261738 109.34467055 -58.25390625 105.3125 C-59.48987616 103.47589676 -60.75306201 101.65739434 -62.0390625 99.85546875 C-69.06952263 89.61788637 -70.72976909 78.11120085 -69 66 C-67.17112145 59.35411454 -64.12338399 53.49784532 -60 48 C-59.46375 47.21625 -58.9275 46.4325 -58.375 45.625 C-57.92125 45.08875 -57.4675 44.5525 -57 44 C-56.34 44 -55.68 44 -55 44 C-54.67 43.01 -54.34 42.02 -54 41 C-52.63305664 39.6496582 -52.63305664 39.6496582 -50.91015625 38.30078125 C-50.29076172 37.81416016 -49.67136719 37.32753906 -49.03320312 36.82617188 C-48.38287109 36.32666016 -47.73253906 35.82714844 -47.0625 35.3125 C-46.41603516 34.80138672 -45.76957031 34.29027344 -45.10351562 33.76367188 C-40.26450893 30 -40.26450893 30 -38 30 C-38.15855469 29.45601562 -38.31710938 28.91203125 -38.48046875 28.3515625 C-40.35420359 19.87044693 -39.36534499 11.51809416 -35 4 C-32.6875 1.5625 -32.6875 1.5625 -30 0 C-29.05125 -0.5775 -28.1025 -1.155 -27.125 -1.75 C-18.94368223 -5.02252711 -7.61262692 -4.29075336 0 0 Z M-31 10 C-32.67742219 15.05391074 -33.12170507 21.2324744 -31.10546875 26.20703125 C-29.91921595 28.32783797 -29.91921595 28.32783797 -28 31 C-28.59425781 31.32871094 -29.18851563 31.65742187 -29.80078125 31.99609375 C-43.22433561 39.69950209 -57.68401197 50.39908915 -62 66 C-63.48643636 77.16045662 -61.73786898 87.77889833 -54.81640625 96.8671875 C-54.07261719 97.77726562 -53.32882813 98.68734375 -52.5625 99.625 C-49.0397131 104.15240906 -49.0397131 104.15240906 -48.86328125 107.91796875 C-49.5654413 111.88972905 -50.80613821 115.46943089 -52.1875 119.25 C-53.30950017 123.04753902 -53.23635536 125.2222475 -52 129 C-48.29467579 132.35202586 -44.01200937 134.53012412 -39 135 C-40.39449109 135.483059 -41.79066707 135.96125517 -43.1875 136.4375 C-43.96480469 136.70433594 -44.74210937 136.97117188 -45.54296875 137.24609375 C-49.86259455 138.57151152 -53.75594745 139.11529542 -58.2734375 138.9921875 C-59.2634375 138.97542969 -60.2534375 138.95867187 -61.2734375 138.94140625 C-63.33351955 138.8972987 -65.39344798 138.84527373 -67.453125 138.78515625 C-74.74970952 138.68091933 -79.70793849 139.13687158 -85.3984375 144.0859375 C-86.05070312 144.84132812 -86.70296875 145.59671875 -87.375 146.375 C-88.04273438 147.12523437 -88.71046875 147.87546875 -89.3984375 148.6484375 C-91.22482073 151.33010264 -91.98056214 152.7441579 -92 156 C-90.71615832 158.39019373 -89.48032581 160.35125645 -87.875 162.5 C-87.483125 163.05558594 -87.09125 163.61117187 -86.6875 164.18359375 C-84.07904283 167.80645093 -81.22898866 170.92039516 -78 174 C-77.1646875 173.566875 -77.1646875 173.566875 -76.3125 173.125 C-71.64475517 170.85420522 -67.58675238 169.66442682 -62.40625 169.0703125 C-61.1275 168.91433594 -59.84875 168.75835937 -58.53125 168.59765625 C-55.87569253 168.28375904 -53.21933622 167.97889253 -50.5625 167.67578125 C-39.60936554 166.32854571 -28.76901529 164.52705664 -19.5859375 158.05078125 C-18 157 -18 157 -15 156 C-12.5159792 157.27339695 -10.28230931 158.81179379 -7.9609375 160.359375 C0.89922259 165.26869853 10.74592403 166.1908865 20.625 167.5625 C22.84692305 167.87483696 25.06839873 168.18970023 27.28915405 168.51023865 C29.29823871 168.79971777 31.30851378 169.08089979 33.31884766 169.36157227 C37.01133635 170.00196608 40.42211818 170.9050423 44 172 C44 172.66 44 173.32 44 174 C49.44776664 173.13168785 51.79319308 169.16406272 55 165 C55.63550781 164.18402344 56.27101562 163.36804688 56.92578125 162.52734375 C60.17435911 158.0665434 60.17435911 158.0665434 60.7265625 152.796875 C57.94405678 146.56596475 52.24952782 141.60768213 46 139 C43.40625432 138.77368421 43.40625432 138.77368421 40.59765625 138.91015625 C39.02262329 138.94302734 39.02262329 138.94302734 37.41577148 138.9765625 C35.7559021 139.01910156 35.7559021 139.01910156 34.0625 139.0625 C24.90188203 139.19923545 16.76008368 138.92583312 8 136 C11 134 11 134 14.5 132.5625 C17.58677242 131.1844766 18.98724152 130.55511855 21 128 C22.19780443 122.25758463 20.56138392 116.75725443 18.65625 111.359375 C17.9086789 108.67167889 17.64221175 106.77609197 18 104 C19.57421875 101.5625 19.57421875 101.5625 21.6875 99 C29.02009423 89.28398704 32.63678537 79.22133075 31 67 C27.70166834 52.90526593 15.63960553 42.66198691 4.0078125 35.0390625 C1.69486582 33.64343178 -0.62750675 32.2912242 -3 31 C-2.51273437 30.319375 -2.02546875 29.63875 -1.5234375 28.9375 C0.31623658 25.390231 0.40072119 22.97820995 0.375 19 C0.38273437 17.80375 0.39046875 16.6075 0.3984375 15.375 C-0.02877743 11.7562382 -0.83077808 9.8922959 -3 7 C-12.60436458 0.10455876 -22.89913152 1.89913152 -31 10 Z " fill="#F3F3F3" transform="translate(129,23)"/>
<path d="M0 0 C4.33469253 2.48113714 8.35054193 5.30262025 12.3203125 8.328125 C13.39152344 9.13056641 13.39152344 9.13056641 14.484375 9.94921875 C20.95398894 15.15738287 26.45957914 21.42856588 27.9296875 29.796875 C28.23003739 37.47248323 27.18513306 44.19422081 22.3203125 50.328125 C19.59663664 52.14390891 18.3764494 52.6879506 15.3203125 53.328125 C14.11955078 53.62783203 14.11955078 53.62783203 12.89453125 53.93359375 C-3.05661293 57.14972431 -26.21452915 58.46767874 -41.3046875 51.703125 C-46.29273009 46.71508241 -48.25733399 40.70695312 -49.1171875 33.828125 C-48.96463769 25.63620036 -43.92742282 18.23795696 -38.4296875 12.515625 C-33.85392028 8.27054347 -28.96490164 4.63996373 -23.6796875 1.328125 C-22.98875 0.89242187 -22.2978125 0.45671875 -21.5859375 0.0078125 C-14.22268012 -4.17054387 -7.48360485 -3.70268951 0 0 Z " fill="#FBFBFB" transform="translate(123.6796875,62.671875)"/>
<path d="M0 0 C4.78517086 1.70764921 8.37294166 4.78056234 12.37890625 7.83984375 C21.62086011 14.04347255 33.09862751 13.91287767 43.84033203 14.64770508 C45.88589165 14.791836 47.92891208 14.95731356 49.97265625 15.125 C51.17631836 15.21064209 52.37998047 15.29628418 53.62011719 15.38452148 C57.55224141 16.18057998 59.8836046 17.55400009 62.98828125 20.06640625 C63.55078125 22.62890625 63.55078125 22.62890625 62.98828125 25.06640625 C61.78466797 26.72338867 61.78466797 26.72338867 59.98828125 28.06640625 C57.55908203 28.25512695 57.55908203 28.25512695 54.68359375 27.9921875 C53.63123535 27.90275879 52.57887695 27.81333008 51.49462891 27.72119141 C49.82086182 27.55176025 49.82086182 27.55176025 48.11328125 27.37890625 C46.97810059 27.27368652 45.84291992 27.1684668 44.67333984 27.06005859 C41.44224424 26.75090054 38.2152572 26.41571261 34.98828125 26.06640625 C34.23933594 25.98729004 33.49039063 25.90817383 32.71875 25.82666016 C21.42336108 24.57259136 10.84927991 21.4505718 1.98828125 14.06640625 C0.94712284 12.76495823 -0.06549716 11.43842756 -1.01171875 10.06640625 C-1.35203125 10.5253125 -1.69234375 10.98421875 -2.04296875 11.45703125 C-8.16157646 19.20292825 -15.67017896 21.6556863 -25.01171875 24.06640625 C-25.75808594 24.26234375 -26.50445312 24.45828125 -27.2734375 24.66015625 C-34.11870398 26.24072712 -41.00016908 26.50876145 -47.9921875 26.8359375 C-51.16013544 26.99289794 -54.24901248 27.33881757 -57.38671875 27.81640625 C-61.01171875 28.06640625 -61.01171875 28.06640625 -62.70703125 26.734375 C-64.01171875 25.06640625 -64.01171875 25.06640625 -64.51171875 22.62890625 C-64.01171875 20.06640625 -64.01171875 20.06640625 -61.88671875 17.81640625 C-56.86310783 14.75855612 -51.51065503 14.96667084 -45.77954102 14.82836914 C-31.31456087 14.43022647 -19.17532113 12.90166832 -7.75219727 3.33227539 C-5.0705448 1.15194194 -3.50430241 0.07726737 0 0 Z " fill="#F6F6F6" transform="translate(114.01171875,155.93359375)"/>
<path d="M0 0 C16.5 0 33 0 50 0 C50.495 5.94 50.495 5.94 51 12 C50.2251123 11.83701416 49.45022461 11.67402832 48.65185547 11.50610352 C43.93535821 10.85245337 39.32545025 10.87660025 34.5703125 10.90234375 C33.57998016 10.9037587 32.58964783 10.90517365 31.56930542 10.90663147 C28.42117227 10.91220748 25.27311148 10.92475558 22.125 10.9375 C19.98437603 10.9425181 17.84375094 10.94708046 15.703125 10.95117188 C10.46872232 10.96216906 5.23437341 10.97941716 0 11 C0 7.37 0 3.74 0 0 Z " fill="#F3F3F3" transform="translate(88,124)"/>
<path d="M0 0 C1.23040764 -0.0049926 1.23040764 -0.0049926 2.485672 -0.01008606 C4.20585576 -0.01511413 5.92604913 -0.01749567 7.64624023 -0.01733398 C10.27278535 -0.01953398 12.89891883 -0.03776983 15.52539062 -0.05664062 C17.20442566 -0.05957276 18.88346267 -0.06155876 20.5625 -0.0625 C21.73295113 -0.07327827 21.73295113 -0.07327827 22.92704773 -0.08427429 C28.28727526 -0.06182442 32.21179658 0.29773408 36.08203125 4.16796875 C36.08203125 5.15796875 36.08203125 6.14796875 36.08203125 7.16796875 C32.6325058 8.71612765 29.93121253 9.41954221 26.15576172 9.42675781 C24.72935867 9.43621429 24.72935867 9.43621429 23.2741394 9.44586182 C21.75205368 9.43978912 21.75205368 9.43978912 20.19921875 9.43359375 C18.62238815 9.43646393 18.62238815 9.43646393 17.01370239 9.43939209 C14.79640462 9.44075072 12.57909881 9.43707683 10.36181641 9.42871094 C6.96238441 9.41798564 3.56347832 9.42862834 0.1640625 9.44140625 C-1.99088659 9.44008502 -4.14583534 9.43752338 -6.30078125 9.43359375 C-7.82893967 9.43966644 -7.82893967 9.43966644 -9.38796997 9.44586182 C-10.33260101 9.4395575 -11.27723206 9.43325317 -12.25048828 9.42675781 C-13.08146027 9.42516663 -13.91243225 9.42357544 -14.76858521 9.42193604 C-16.91796875 9.16796875 -16.91796875 9.16796875 -19.91796875 7.16796875 C-19.34451938 4.30072189 -19.05651725 3.30651725 -16.91796875 1.16796875 C-11.27079396 0.19527738 -5.7197157 0.00822114 0 0 Z " fill="#F9F9F9" transform="translate(104.91796875,140.83203125)"/>
<path d="M0 0 C2.97 0 5.94 0 9 0 C9 3.63 9 7.26 9 11 C11.64 11 14.28 11 17 11 C17 14.3 17 17.6 17 21 C14.36 21 11.72 21 9 21 C9 24.63 9 28.26 9 32 C6.03 32 3.06 32 0 32 C0 28.37 0 24.74 0 21 C-2.64 21 -5.28 21 -8 21 C-8 17.7 -8 14.4 -8 11 C-5.36 11 -2.72 11 0 11 C0 7.37 0 3.74 0 0 Z " fill="#111111" transform="translate(109,74)"/>
<path d="M0 0 C3.81785814 3.41597833 6.00431213 5.92199186 7 11 C6.69380446 17.56928624 4.9245313 21.71661474 1.375 27.1875 C0.96121094 27.87263672 0.54742187 28.55777344 0.12109375 29.26367188 C-2.95065239 34.11404306 -6.0639064 37.04060292 -11 40 C-15.60041925 40.89580356 -18.05609972 40.58521817 -22.125 38.0625 C-26.54653414 35.42898253 -30.95362816 34.99749279 -36 34.4375 C-37.87536983 34.19687542 -39.75037197 33.95336828 -41.625 33.70703125 C-42.54023438 33.58924316 -43.45546875 33.47145508 -44.3984375 33.35009766 C-54.16237773 32.03614399 -63.15559048 29.89294467 -72.1953125 25.890625 C-76.85150415 24.41205718 -80.12446063 25.90429976 -84.375 27.9375 C-90.45068181 30.84278058 -96.54231824 32.20779169 -103.21875 32.9296875 C-104.57688913 33.08666781 -105.9349602 33.24423785 -107.29296875 33.40234375 C-109.3986204 33.64132123 -111.50447825 33.87547526 -113.61181641 34.09912109 C-124.39789868 35.25382644 -124.39789868 35.25382644 -134 40 C-138.17032386 40.72815178 -140.34698023 40.95056692 -144.00390625 38.84765625 C-150.06739881 33.99448902 -153.89483004 27.49046821 -158 21 C-158.33 20.67 -158.66 20.34 -159 20 C-159.07244053 17.98035801 -159.08377188 15.95832876 -159.0625 13.9375 C-159.05347656 12.83277344 -159.04445312 11.72804687 -159.03515625 10.58984375 C-159.02355469 9.73519531 -159.01195312 8.88054687 -159 8 C-158.67 8 -158.34 8 -158 8 C-158.03222656 8.57105469 -158.06445312 9.14210937 -158.09765625 9.73046875 C-157.95479101 19.71516148 -151.81912538 26.60349503 -145.51953125 33.85546875 C-142.69102432 36.2629886 -141.5835826 36.63524881 -137.9375 36.5 C-137.10089844 36.4896875 -136.26429688 36.479375 -135.40234375 36.46875 C-132.94517555 36.19624636 -132.94517555 36.19624636 -131.32202148 34.54638672 C-128.18776455 32.45907903 -125.10122447 32.19688558 -121.4453125 31.7890625 C-119.927067 31.59387697 -118.40883841 31.39855998 -116.890625 31.203125 C-114.52431526 30.91341247 -112.15749215 30.62884579 -109.79003906 30.34863281 C-93.30802717 28.99965394 -93.30802717 28.99965394 -79 22 C-74.62317537 22.28544508 -71.02595265 23.29880186 -66.9375 24.875 C-56.40849432 28.81801977 -45.72189968 30.35971573 -34.57226562 31.17822266 C-29.59380844 31.60007258 -24.72575761 32.27424239 -21 36 C-15.98341013 36.5891968 -11.51442565 37.03256295 -7.25 34.125 C-6.13625 32.578125 -6.13625 32.578125 -5 31 C-4.12021484 29.80310547 -4.12021484 29.80310547 -3.22265625 28.58203125 C1.75143641 21.69560849 5.30189201 16.73478708 4 8 C2.1353694 4.6167447 2.1353694 4.6167447 0 2 C0 1.34 0 0.68 0 0 Z " fill="#9B9890" transform="translate(190,165)"/>
<path d="M0 0 C2.9375 2.0625 2.9375 2.0625 5 5 C5.06625411 8.8427383 4.81899419 10.99200716 2.375 14 C-1.08383253 15.45635054 -3.41298371 14.91305869 -7 14 C-8.9375 12.875 -8.9375 12.875 -10 11 C-10.50030235 7.06905293 -10.5996142 4.8994213 -8.375 1.5625 C-5.24316508 -0.49791771 -3.68455227 -0.6767545 0 0 Z " fill="#F3F3F3" transform="translate(116,35)"/>
<path d="M0 0 C4.54848174 3.73306764 4.96042699 9.4838983 6 15 C7.18546485 27.44738093 2.44202987 38.59026537 -4 49 C-4.59425781 49.65484375 -5.18851563 50.3096875 -5.80078125 50.984375 C-7.29887654 53.03327151 -7.29887654 53.03327151 -6.63671875 55.91796875 C-6.32347656 56.99691406 -6.01023438 58.07585937 -5.6875 59.1875 C-3.88530119 66.1011075 -2.34167329 72.45582193 -6 79 C-6.66 79 -7.32 79 -8 79 C-7.835 78.38125 -7.67 77.7625 -7.5 77.125 C-6.35606742 69.97542136 -6.87130743 63.91825084 -9 57 C-9.45370762 52.08928222 -8.58914158 49.73434155 -5.75 45.75 C1.6717911 34.70745656 4.68872331 23.44506877 2.328125 10.2421875 C1.59452225 6.81640108 0.82426884 3.40501534 0 0 Z " fill="#C8C4BA" transform="translate(162,78)"/>
<path d="M0 0 C3.81785814 3.41597833 6.00431213 5.92199186 7 11 C6.69380446 17.56928624 4.9245313 21.71661474 1.375 27.1875 C0.75431641 28.21520508 0.75431641 28.21520508 0.12109375 29.26367188 C-3.17914746 34.47484302 -7.0874261 39.07520981 -13.36328125 40.55859375 C-18.77777778 40.22222222 -18.77777778 40.22222222 -21 38 C-18.71621256 36.85810628 -17.22336812 36.86933497 -14.6875 36.75 C-11.34629819 36.38230794 -10.15717169 36.11600768 -7.375 34.0625 C1.45818243 23.31683062 1.45818243 23.31683062 4.3359375 10.25390625 C3.83046942 6.86256811 2.07411629 4.6574615 0 2 C0 1.34 0 0.68 0 0 Z " fill="#C4BFB6" transform="translate(190,165)"/>
<path d="M0 0 C0.33 0 0.66 0 1 0 C0.96777344 0.57105469 0.93554688 1.14210937 0.90234375 1.73046875 C1.04008786 11.35725181 6.6853574 18.27733285 12.94140625 25.125 C16.40827532 28.35143743 19.12890156 29.76238544 24 30 C24 30.33 24 30.66 24 31 C20.10477499 31.55646072 16.54565145 31.94825242 13.08984375 29.828125 C8.67297207 25.60241633 5.54043398 20.45443619 2.3828125 15.2578125 C1.18892111 13.11102491 1.18892111 13.11102491 0 12 C-0.07244053 9.98035801 -0.08377188 7.95832876 -0.0625 5.9375 C-0.05347656 4.83277344 -0.04445313 3.72804687 -0.03515625 2.58984375 C-0.02355469 1.73519531 -0.01195313 0.88054687 0 0 Z " fill="#8A8782" transform="translate(31,173)"/>
<path d="M0 0 C0.33 0 0.66 0 1 0 C1.02578125 0.93199219 1.0515625 1.86398438 1.078125 2.82421875 C1.64593679 15.58707918 4.03123313 26.00807287 11.51171875 36.66015625 C12.90424067 38.84944924 13.56130261 40.46725372 14 43 C10.00122677 39.35912041 7.69783051 35.99933011 5.3125 31.0625 C4.73113281 29.87785156 4.14976563 28.69320312 3.55078125 27.47265625 C0.59177584 20.84657108 -0.27372596 15.79816745 -0.125 8.625 C-0.11597656 7.79355469 -0.10695312 6.96210937 -0.09765625 6.10546875 C-0.0742622 4.07018663 -0.03839725 2.03505436 0 0 Z " fill="#83817C" transform="translate(60,89)"/>
<path d="M0 0 C1.875 1.6875 1.875 1.6875 3 3 C-0.76018421 2.27715498 -4.46765616 1.4061739 -8.1875 0.5 C-13.78692099 -0.80738189 -19.26626817 -1.62465412 -25 -2 C-25 -2.33 -25 -2.66 -25 -3 C-16.82756326 -4.62464104 -7.11118684 -4.86554889 0 0 Z " fill="#9E9B94" transform="translate(168,200)"/>
<path d="M0 0 C3.88745356 5.83118034 4.88344647 13.08833055 4 20 C2.984375 22.265625 2.984375 22.265625 2 24 C1.34 24 0.68 24 0 24 C0.165 23.38125 0.33 22.7625 0.5 22.125 C1.69169758 14.67689015 0.96873991 8.21871299 -1 1 C-0.67 0.67 -0.34 0.34 0 0 Z " fill="#CCC7BE" transform="translate(154,133)"/>
<path d="M0 0 C1.22589844 0.01353516 1.22589844 0.01353516 2.4765625 0.02734375 C3.41628906 0.04474609 3.41628906 0.04474609 4.375 0.0625 C4.045 1.0525 3.715 2.0425 3.375 3.0625 C-2.6796875 3.2578125 -2.6796875 3.2578125 -4.625 3.0625 C-5.285 2.4025 -5.945 1.7425 -6.625 1.0625 C-4.21954362 -0.14022819 -2.67503047 -0.03821472 0 0 Z " fill="#ACA9A2" transform="translate(175.625,201.9375)"/>
<path d="M0 0 C0.66 0.66 1.32 1.32 2 2 C0.09598862 3.90401138 -1.33425686 4.93520439 -4.046875 5.19921875 C-6.03233273 5.1886578 -8.0169914 5.09915043 -10 5 C-9.67 4.01 -9.34 3.02 -9 2 C-6.94921875 1.77213542 -4.8984375 1.54427083 -2.84765625 1.31640625 C-0.98859771 1.18113386 -0.98859771 1.18113386 0 0 Z " fill="#C0BDB6" transform="translate(58,200)"/>
<path d="M0 0 C6.4 0.49230769 6.4 0.49230769 9.4375 3.0625 C10.2109375 4.0215625 10.2109375 4.0215625 11 5 C6.87248551 4.39301257 3.6678852 2.96189209 0 1 C0 0.67 0 0.34 0 0 Z " fill="#817E77" transform="translate(160,198)"/>
</svg>
